<svg width="67" height="67" xmlns="http://www.w3.org/2000/svg">

 <g>
  <title>background</title>
  <rect fill="#ffffff" id="canvas_background" height="69" width="69" y="-1" x="-1"/>
 </g>
 <g>
  <title>Layer 1</title>
  <path stroke="null" id="svg_1" fill-rule="evenodd" clip-rule="evenodd" fill="#d59541" d="m52.046904,49.172639l0,-13.07186c0,-7.002463 -3.789697,-10.261499 -8.841873,-10.261499c-4.077035,0 -5.904009,2.212127 -6.922137,3.764633l0,-3.230017l-7.681207,0c0.101813,2.13958 0,22.799859 0,22.799859l7.681207,0l0,-12.733679c0,-0.680826 0.049775,-1.361652 0.253401,-1.849391c0.554314,-1.360536 1.817923,-2.770181 3.939023,-2.770181c2.78062,0 3.89151,2.090471 3.89151,5.154188l0,12.197947l7.680076,0zm-31.537069,-25.910453c2.677676,0 4.346274,-1.751174 4.346274,-3.940978c-0.049775,-2.235565 -1.668598,-3.93763 -4.295367,-3.93763s-4.345142,1.702065 -4.345142,3.93763c0,2.189804 1.667467,3.940978 4.245592,3.940978l0.048644,0zm3.840604,25.910453l0,-22.798743l-7.680076,0l0,22.798743l7.680076,0zm-25.288028,-49.26167l67.875175,0l0,66.966495l-67.875175,0l0,-66.966495z"/>
 </g>
</svg>