<svg width="64" height="64" xmlns="http://www.w3.org/2000/svg">
 <title/>

 <g>
  <title>background</title>
  <rect fill="none" id="canvas_background" height="402" width="582" y="-1" x="-1"/>
 </g>
 <g>
  <title>Layer 1</title>
  <rect fill="#ffffff" id="svg_1" y="56" x="23.00574" width="19" height="6"/>
  <rect fill="#ffffff" id="svg_2" y="8.309537" x="0.322918" width="19.00002" transform="rotate(-45 9.822927474975582,10.809541702270506) " height="5.00001"/>
  <rect fill="#ffffff" id="svg_3" y="1.616674" x="51.654227" width="4.99998" transform="rotate(-45 54.15421676635743,11.116693496704102) " height="19.00004"/>
  <path fill="#ffffff" id="svg_4" d="m44.55634,9.7066l-2.69134,-0.11407a5.05767,5.05767 0 0 0 -4.28314,1.43164l-5.50446,5.50446l-5.75354,-5.75354a3.8392,3.8392 0 0 0 -3.85785,-0.90894a3.618,3.618 0 0 1 -3.61101,-0.90315l-0.85388,-0.85388l-10.60665,10.60658l1.728,1.728l-0.11408,2.69123a5.05776,5.05776 0 0 0 1.43161,4.28316l9.61243,9.61243a4.98517,4.98517 0 0 1 1.69067,-3.25891l-2.99493,-2.99494l0.70709,-0.70709l3.12824,3.12823a4.94908,4.94908 0 0 1 1.42236,-0.54058l0,-3.69391l-1.72217,-1.72217l0.70709,-0.70715l1.01508,1.01507l0,-5.34985a3.60983,3.60983 0 0 1 3.14258,-3.625a3.506,3.506 0 0 1 0.99078,0.0448l-1.22949,-1.22949l0.70715,-0.7071l1.79612,1.79615a3.54221,3.54221 0 0 1 3.40339,-1.90827a3.60085,3.60085 0 0 1 3.1748,3.332a3.55741,3.55741 0 0 1 1.8252,-0.332a3.62038,3.62038 0 0 1 3.18945,3.66309l0,3.42383a5.00355,5.00355 0 0 1 3.8161,3.62518l2.78851,-2.78851l0.7071,0.70715l-3.31529,3.31525c0.00012,0.01373 0.0036,0.02655 0.0036,0.04034l0,3.32007a3.96267,3.96267 0 0 0 2.37891,-1.12848l6.84014,-6.84015a3.839,3.839 0 0 0 0.90888,-3.85785a3.61818,3.61818 0 0 1 0.9032,-3.61108l0.85388,-0.85388l-10.60657,-10.60663l-1.72796,1.72796z"/>
  <path fill="#ffffff" id="svg_5" d="m29.88043,21.68951a2.49081,2.49081 0 0 0 -2.72583,-2.18866a2.598,2.598 0 0 0 -2.24225,2.62964l0,11.35736a4,4 0 0 0 -4,4l0,9.67347a3.83915,3.83915 0 0 0 2.08521,3.3706a3.618,3.618 0 0 1 1.91479,3.192l0,1.20758l15,0l0,-2.44365l1.98365,-1.82238a5.05755,5.05755 0 0 0 2.01635,-4.041l0,-15.13662a4,4 0 0 0 -4,-4l0,-4.32257a2.62152,2.62152 0 0 0 -2.27612,-2.6676a2.49273,2.49273 0 0 0 -2.68231,2.09906l0.45843,0l0,15.44336l-1,0l0,-15.44336l0.5,0l0,-2.43146a2.62152,2.62152 0 0 0 -2.27612,-2.6676a2.50036,2.50036 0 0 0 -2.72388,2.49017l0,1.70166l0.5,0l0,15.44336l-1,0l0,-15.44336l0.46808,0zm-4.56891,20.35059l-1,0l0,-8l1,0l0,8zm14.10083,-14.24176l1,0l0,10.44336l-1,0l0,-10.44336z"/>
 </g>
</svg>